<svg xmlns="http://www.w3.org/2000/svg" version="1.1" xmlns:xlink="http://www.w3.org/1999/xlink" xmlns:svgjs="http://svgjs.dev/svgjs" width="1920" height="1080" preserveAspectRatio="none" viewBox="0 0 1920 1080"><g mask="url(&quot;#SvgjsMask1046&quot;)" fill="none"><rect width="1920" height="1080" x="0" y="0" fill="rgba(178, 216, 216, 0.36)"></rect><path d="M 0,121 C 76.8,198 230.4,514.4 384,506 C 537.6,497.6 614.4,107.4 768,79 C 921.6,50.6 998.4,345.4 1152,364 C 1305.6,382.6 1382.4,167 1536,172 C 1689.6,177 1843.2,345.6 1920,389L1920 1080L0 1080z" fill="rgba(102, 178, 178, 0.51)"></path><path d="M 0,943 C 55,869.8 165,556.4 275,577 C 385,597.6 440,1025.2 550,1046 C 660,1066.8 715,724 825,681 C 935,638 990,814.6 1100,831 C 1210,847.4 1265,720.8 1375,763 C 1485,805.2 1541,1082 1650,1042 C 1759,1002 1866,658.8 1920,563L1920 1080L0 1080z" fill="rgba(0, 76, 76, 0.55)"></path></g><defs><mask id="SvgjsMask1046"><rect width="1920" height="1080" fill="#ffffff"></rect></mask></defs></svg>